#N canvas 0 23 728 755 10;
#X text 10 10 1: BPM 2: BpmAmplitude 3: DistortionAmount 4: DistortionSpeed
5: MvtSpeed 6: MvtRange;
#X obj 43 388 outlet;
#X obj 200 675 inlet;
#X msg 200 725 send /Blobs/MvtRange \$1;
#X obj 450 725 outlet;
#X obj 200 550 inlet;
#X msg 200 600 send /Blobs/MvtSpeed \$1;
#X obj 450 600 outlet;
#X obj 200 425 inlet;
#X msg 200 475 send /Blobs/DistortionSpeed \$1;
#X obj 450 475 outlet;
#X obj 200 300 inlet;
#X msg 200 350 send /Blobs/DistortionAmount \$1;
#X obj 450 350 outlet;
#X obj 200 175 inlet;
#X obj 200 200 cyclone/scale 1 126 0 50;
#X msg 200 225 send /Blobs/BpmAmplitude \$1;
#X obj 450 225 outlet;
#X obj 200 50 inlet;
#X obj 200 75 cyclone/scale 1 126 90 200;
#X msg 200 100 send /Blobs/BPM \$1;
#X obj 450 100 outlet;
#X obj 200 450 cyclone/scale 1 126 0 7;
#X obj 200 575 cyclone/scale 1 126 0 5;
#X obj 200 700 cyclone/scale 1 126 0 2;
#X obj 200 325 cyclone/scale 1 126 0 5;
#X connect 2 0 24 0;
#X connect 3 0 1 0;
#X connect 5 0 23 0;
#X connect 6 0 1 0;
#X connect 8 0 22 0;
#X connect 9 0 1 0;
#X connect 11 0 25 0;
#X connect 12 0 1 0;
#X connect 14 0 15 0;
#X connect 15 0 16 0;
#X connect 15 0 17 0;
#X connect 16 0 1 0;
#X connect 18 0 19 0;
#X connect 19 0 20 0;
#X connect 19 0 21 0;
#X connect 20 0 1 0;
#X connect 22 0 9 0;
#X connect 22 0 10 0;
#X connect 23 0 6 0;
#X connect 23 0 7 0;
#X connect 24 0 3 0;
#X connect 24 0 4 0;
#X connect 25 0 12 0;
#X connect 25 0 13 0;
