#N canvas 162 457 450 472 10;
#X msg 122 120 0;
#X msg 66 117 1;
#X floatatom 87 287 5 0 0 0 - - -, f 5;
#X obj 93 214 hradio 30 1 0 8 empty empty empty 0 -8 0 10 -262144 -1
-1 0;
#X obj 87 157 counter 1 8;
#X obj 93 256 + 1;
#X obj 93 185 - 1;
#X text 56 63 Bouton (-);
#X text 123 64 Bouton (+);
#X msg 66 117 1;
#X msg 66 117 1;
#X msg 66 117 1;
#X obj 109 330 == 2;
#X obj 139 330 == 3;
#X obj 169 330 == 4;
#X obj 199 330 == 5;
#X obj 229 330 == 6;
#X obj 258 330 == 7;
#X obj 289 330 == 8;
#X obj 79 330 == 1;
#X obj 122 92 inlet;
#X obj 66 90 inlet;
#X obj 14 333 outlet;
#X obj 45 390 outlet;
#X obj 93 389 outlet;
#X obj 139 389 outlet;
#X obj 186 390 outlet;
#X obj 235 389 outlet;
#X obj 282 391 outlet;
#X obj 325 392 outlet;
#X obj 369 390 outlet;
#X connect 0 0 4 1;
#X connect 0 0 4 0;
#X connect 1 0 4 1;
#X connect 1 0 4 0;
#X connect 2 0 12 0;
#X connect 2 0 19 0;
#X connect 2 0 13 0;
#X connect 2 0 14 0;
#X connect 2 0 15 0;
#X connect 2 0 16 0;
#X connect 2 0 17 0;
#X connect 2 0 18 0;
#X connect 3 0 5 0;
#X connect 3 0 22 0;
#X connect 4 0 2 0;
#X connect 4 0 6 0;
#X connect 5 0 2 0;
#X connect 6 0 3 0;
#X connect 12 0 24 0;
#X connect 13 0 25 0;
#X connect 14 0 26 0;
#X connect 15 0 27 0;
#X connect 16 0 28 0;
#X connect 17 0 29 0;
#X connect 18 0 30 0;
#X connect 19 0 23 0;
#X connect 20 0 0 0;
#X connect 21 0 1 0;
