#N canvas 0 23 728 755 10;
#X text 10 10 1: BPM 2: BpmAmplitude 3: DistortionAmount 4: DistortionSpeed
5: MvtSpeed 6: MvtRange;
#X obj 43 388 outlet;
#X obj 200 425 inlet;
#X msg 200 475 send /Flakes/Back/Mass \$1;
#X obj 450 475 outlet;
#X obj 200 300 inlet;
#X msg 200 350 send /Flakes/Back/WorldViscosity \$1;
#X obj 450 350 outlet;
#X obj 200 175 inlet;
#X msg 200 225 send /Flakes/Back/ForceFieldMag \$1;
#X obj 450 225 outlet;
#X obj 200 50 inlet;
#X msg 200 100 send /Flakes/Back/NumFlakes \$1;
#X obj 450 100 outlet;
#X obj 200 75 cyclone/scale 1 126 0 150;
#X obj 200 200 cyclone/scale 1 126 0 15;
#X obj 200 325 cyclone/scale 1 126 0 1;
#X obj 200 450 cyclone/scale 1 126 1 20;
#X connect 2 0 17 0;
#X connect 3 0 1 0;
#X connect 5 0 16 0;
#X connect 6 0 1 0;
#X connect 8 0 15 0;
#X connect 9 0 1 0;
#X connect 11 0 14 0;
#X connect 12 0 1 0;
#X connect 14 0 12 0;
#X connect 14 0 13 0;
#X connect 15 0 9 0;
#X connect 15 0 10 0;
#X connect 16 0 6 0;
#X connect 16 0 7 0;
#X connect 17 0 3 0;
#X connect 17 0 4 0;
