#N canvas 0 23 593 755 10;
#X obj 43 388 outlet;
#X obj 200 550 inlet;
#X obj 450 600 outlet;
#X obj 200 425 inlet;
#X obj 450 475 outlet;
#X obj 200 300 inlet;
#X obj 450 350 outlet;
#X obj 200 175 inlet;
#X obj 450 225 outlet;
#X obj 200 50 inlet;
#X obj 450 100 outlet;
#X obj 200 575 cyclone/scale 1 126 0 1;
#X obj 200 75 cyclone/scale 1 126 0 1;
#X text 10 10 1: Display 2: ColorChangeSpeed 3: Brightness 4: ColorAmount
5: Alpha;
#X obj 200 450 cyclone/scale 1 126 0 2;
#X msg 200 100 send /Blinking/Display \$1;
#X msg 200 225 send /Blinking/ColorChangeSpeed \$1;
#X msg 200 350 send /Blinking/Brightness \$1;
#X msg 200 475 send /Blinking/ColorAmount \$1;
#X msg 200 600 send /Blinking/Alpha \$1;
#X obj 200 325 cyclone/scale 1 126 0 1.2;
#X obj 200 200 cyclone/scale 1 126 0 3;
#X connect 1 0 11 0;
#X connect 3 0 14 0;
#X connect 5 0 20 0;
#X connect 7 0 21 0;
#X connect 9 0 12 0;
#X connect 11 0 19 0;
#X connect 11 0 2 0;
#X connect 12 0 15 0;
#X connect 12 0 10 0;
#X connect 14 0 18 0;
#X connect 14 0 4 0;
#X connect 15 0 0 0;
#X connect 16 0 0 0;
#X connect 17 0 0 0;
#X connect 18 0 0 0;
#X connect 19 0 0 0;
#X connect 20 0 17 0;
#X connect 20 0 6 0;
#X connect 21 0 16 0;
#X connect 21 0 8 0;
