#N canvas 0 23 728 755 10;
#X text 10 10 1: SandSpeed 2: SandAmount 3: Red 4: Green 5: Blue;
#X obj 43 388 outlet;
#X obj 200 550 inlet;
#X obj 450 600 outlet;
#X obj 200 425 inlet;
#X obj 450 475 outlet;
#X obj 200 300 inlet;
#X obj 450 350 outlet;
#X obj 200 175 inlet;
#X obj 450 225 outlet;
#X obj 200 50 inlet;
#X obj 450 100 outlet;
#X obj 200 325 cyclone/scale 1 126 0 255;
#X obj 200 450 cyclone/scale 1 126 0 255;
#X msg 200 350 send /Sand/Red \$1;
#X msg 200 475 send /Sand/Green \$1;
#X msg 200 600 send /Sand/Blue \$1;
#X msg 200 225 send /Sand/SandSpeed \$1;
#X msg 200 100 send /Sand/SandAmount \$1;
#X obj 200 75 cyclone/scale 1 126 0 1;
#X obj 200 200 cyclone/scale 1 126 0 1;
#X obj 200 575 cyclone/scale 1 126 0 255;
#X connect 2 0 21 0;
#X connect 4 0 13 0;
#X connect 6 0 12 0;
#X connect 8 0 20 0;
#X connect 10 0 19 0;
#X connect 12 0 14 0;
#X connect 12 0 7 0;
#X connect 13 0 15 0;
#X connect 13 0 5 0;
#X connect 14 0 1 0;
#X connect 15 0 1 0;
#X connect 16 0 1 0;
#X connect 17 0 1 0;
#X connect 18 0 1 0;
#X connect 19 0 11 0;
#X connect 19 0 18 0;
#X connect 20 0 17 0;
#X connect 20 0 9 0;
#X connect 21 0 16 0;
#X connect 21 0 3 0;
